nColumns=19
nRows=37
DataType=double
version=3
OpenSimVersion=4.1
endheader
time	ground_force_1_vx	ground_force_1_vy	ground_force_1_vz	ground_force_1_px	ground_force_1_py	ground_force_1_pz	ground_force_1_mx	ground_force_1_my	ground_force_1_mz	ground_force_2_vx	ground_force_2_vy	ground_force_2_vz	ground_force_2_px	ground_force_2_py	ground_force_2_pz	ground_force_2_mx	ground_force_2_my	ground_force_2_mz
1.13333	-1.53598	10.6768	-0.240732	0.930681	0	-0.15112	-0	1.9667	-0	0	0	0	-0.000887295	0	-9.38538e-05	0	0	0
1.14167	-5.03921	29.9608	-3.19423	0.995271	0	-0.231342	-0	2.85669	-0	0	0	0	-0.000887295	0	-9.38538e-05	0	0	0
1.15	-11.8638	87.9288	-7.20899	1.03846	0	-0.272244	-0	3.07821	-0	0	0	0	-0.000887295	0	-9.38538e-05	0	0	0
1.15833	-20.92	227.996	-9.76112	1.05245	0	-0.287282	-0	2.41603	-0	0	0	0	-0.000887295	0	-9.38539e-05	0	0	0
1.16667	-30.9342	473.507	-6.11773	1.05187	0	-0.292114	-0	0.870524	-0	0	0	0	-0.000887296	0	-9.38539e-05	0	0	0
1.175	-44.9919	761.183	6.85625	1.04591	0	-0.293577	0	-1.27611	0	0	0	0	-0.000887296	0	-9.3854e-05	0	0	0
1.18333	-69.7786	968.278	24.8757	1.0392	0	-0.294039	0	-3.50135	0	0	0	0	-0.000887296	0	-9.3854e-05	0	0	0
1.19167	-106.336	1051.16	36.1515	1.03316	0	-0.29464	0	-5.21099	0	0	0	0	-0.000887297	0	-9.38541e-05	0	0	0
1.2	-146.781	1078.94	31.672	1.02556	0	-0.296052	0	-5.96657	0	0	0	0	-0.000887297	0	-9.38542e-05	0	0	0
1.20833	-178.678	1126.86	15.5675	1.01452	0	-0.297435	0	-5.63847	0	0	0	0	-0.000887298	0	-9.38543e-05	0	0	0
1.21667	-194.89	1217.47	0.820594	1.00046	0	-0.296959	0	-4.39303	0	0	0	0	-0.000887299	0	-9.38544e-05	0	0	0
1.225	-199.25	1335.59	-5.86478	0.984458	0	-0.294659	0	-2.5528	0	0	0	0	-0.0008873	0	-9.38546e-05	0	0	0
1.23333	-189.357	1452.89	-10.4061	0.96655	0	-0.292393	0	-0.456485	0	0	0	0	-0.0008873	0	-9.38547e-05	0	0	0
1.24167	-162.871	1547.69	-21.0813	0.946682	0	-0.291402	-0	1.6012	-0	0	0	0	-0.000887301	0	-9.38548e-05	0	0	0
1.25	-132.314	1611.81	-36.5089	0.926748	0	-0.29119	-0	3.37958	-0	0	0	0	-0.000887302	0	-9.3855e-05	0	0	0
1.25833	-109.421	1649.06	-48.0202	0.908055	0	-0.290287	-0	4.71583	-0	0	0	0	-0.000887303	0	-9.38552e-05	0	0	0
1.26667	-92.4222	1666.19	-51.6567	0.890087	0	-0.288285	-0	5.56139	-0	0	0	0	-0.000887304	0	-9.38554e-05	0	0	0
1.275	-72.7517	1664.56	-52.3035	0.871842	0	-0.286382	-0	5.97627	-0	0	0	0	-0.000887306	0	-9.38556e-05	0	0	0
1.28333	-47.4447	1642.53	-55.4388	0.852959	0	-0.285643	-0	6.06353	-0	0	0	0	-0.000887307	0	-9.38558e-05	0	0	0
1.29167	-21.5897	1602.26	-59.6911	0.833759	0	-0.285671	-0	5.89665	-0	0	0	0	-0.000887308	0	-9.3856e-05	0	0	0
1.3	3.78499	1551.05	-60.0229	0.814323	0	-0.285402	-0	5.49757	-0	0	0	0	-0.00088731	0	-9.38563e-05	0	0	0
1.30833	31.2871	1491.78	-54.9673	0.794752	0	-0.284718	-0	4.86341	-0	0	0	0	-0.000887311	0	-9.38565e-05	0	0	0
1.31667	59.5101	1419.74	-47.2787	0.775236	0	-0.284484	-0	3.99902	-0	0	0	0	-0.000887312	0	-9.38568e-05	0	0	0
1.325	85.0182	1331.54	-38.9794	0.755588	0	-0.285204	-0	2.93119	-0	0	0	0	-0.000887314	0	-9.3857e-05	0	0	0
1.33333	106.134	1230.35	-29.2063	0.735669	0	-0.286505	-0	1.71421	-0	0	0	0	-0.000887316	0	-9.38573e-05	0	0	0
1.34167	124.516	1121.25	-16.9994	0.715456	0	-0.287811	-0	0.437027	-0	0	0	0	-0.000887317	0	-9.38576e-05	0	0	0
1.35	139.759	1005.48	-3.80459	0.695223	0	-0.289129	0	-0.777075	0	0	0	0	-0.000887319	0	-9.38579e-05	0	0	0
1.35833	149.175	882.531	7.71244	0.675124	0	-0.290761	0	-1.79022	0	0	0	0	-0.000887321	0	-9.38582e-05	0	0	0
1.36667	151.371	754.9	16.0627	0.654805	0	-0.292512	0	-2.48376	0	0	0	0	-0.000887323	0	-9.38586e-05	0	0	0
1.375	146.737	628.535	21.2948	0.634177	0	-0.293886	0	-2.78855	0	0	0	0	-0.000887325	0	-9.38589e-05	0	0	0
1.38333	136.902	509	23.8795	0.613507	0	-0.294503	0	-2.69961	0	0	0	0	-0.000887327	0	-9.38593e-05	0	0	0
1.39167	122.424	398.665	24.1004	0.593836	0	-0.294235	0	-2.27474	0	0	0	0	-0.000887329	0	-9.38596e-05	0	0	0
1.4	103.671	299.491	22.2327	0.576483	0	-0.293163	0	-1.62153	0	0	0	0	-0.000887332	0	-9.386e-05	0	0	0
1.40833	82.2903	214.694	18.7884	0.561578	0	-0.291311	0	-0.876691	0	0	0	0	-0.000887334	0	-9.38604e-05	0	0	0
1.41667	60.8494	146.345	14.524	0.547898	0	-0.288069	0	-0.180601	0	0	0	0	-0.000887336	0	-9.38608e-05	0	0	0
1.425	42.1541	94.5915	10.2934	0.536666	0	-0.281606	-0	0.348735	-0	0	0	0	-0.000887339	0	-9.38612e-05	0	0	0
1.43333	26.8117	57.8057	6.80044	0.539718	0	-0.269094	-0	0.637181	-0	0	0	0	-0.000887341	0	-9.38616e-05	0	0	0
